<svg width="16" height="18" viewBox="0 0 16 18" fill="none" xmlns="http://www.w3.org/2000/svg">
<g id="instagram logo" clip-path="url(#clip0_1_289)">
<path id="Vector" d="M8.00344 4.95732C5.73201 4.95732 3.89987 6.76084 3.89987 8.99677C3.89987 11.2327 5.73201 13.0362 8.00344 13.0362C10.2749 13.0362 12.107 11.2327 12.107 8.99677C12.107 6.76084 10.2749 4.95732 8.00344 4.95732ZM8.00344 11.6229C6.53558 11.6229 5.33558 10.4452 5.33558 8.99677C5.33558 7.54834 6.53201 6.3706 8.00344 6.3706C9.47486 6.3706 10.6713 7.54834 10.6713 8.99677C10.6713 10.4452 9.47129 11.6229 8.00344 11.6229ZM13.232 4.79209C13.232 5.31592 12.8034 5.73428 12.2749 5.73428C11.7427 5.73428 11.3177 5.3124 11.3177 4.79209C11.3177 4.27178 11.7463 3.8499 12.2749 3.8499C12.8034 3.8499 13.232 4.27178 13.232 4.79209ZM15.9499 5.74834C15.8891 4.48623 15.5963 3.36826 14.657 2.44717C13.7213 1.52607 12.5856 1.23779 11.3034 1.17451C9.98201 1.10068 6.0213 1.10068 4.69987 1.17451C3.4213 1.23428 2.28558 1.52256 1.3463 2.44365C0.407014 3.36474 0.117728 4.48271 0.0534423 5.74482C-0.0215576 7.0456 -0.0215576 10.9444 0.0534423 12.2452C0.114157 13.5073 0.407014 14.6253 1.3463 15.5464C2.28558 16.4675 3.41773 16.7558 4.69987 16.819C6.0213 16.8929 9.98201 16.8929 11.3034 16.819C12.5856 16.7593 13.7213 16.471 14.657 15.5464C15.5927 14.6253 15.8856 13.5073 15.9499 12.2452C16.0249 10.9444 16.0249 7.04912 15.9499 5.74834ZM14.2427 13.6409C13.9641 14.33 13.4249 14.8608 12.7213 15.1386C11.6677 15.5499 9.16772 15.455 8.00344 15.455C6.83915 15.455 4.33558 15.5464 3.28558 15.1386C2.58558 14.8643 2.0463 14.3335 1.76416 13.6409C1.3463 12.6038 1.44273 10.1429 1.44273 8.99677C1.44273 7.85068 1.34987 5.38623 1.76416 4.35263C2.04273 3.66357 2.58201 3.13271 3.28558 2.85498C4.33915 2.44365 6.83915 2.53857 8.00344 2.53857C9.16772 2.53857 11.6713 2.44717 12.7213 2.85498C13.4213 3.1292 13.9606 3.66006 14.2427 4.35263C14.6606 5.38974 14.5641 7.85068 14.5641 8.99677C14.5641 10.1429 14.6606 12.6073 14.2427 13.6409Z" fill="#192031"/>
</g>
<defs>
<clipPath id="clip0_1_289">
<rect width="16" height="18" fill="white"/>
</clipPath>
</defs>
</svg>
